<svg fill="none" height="37" viewBox="0 0 150 37" width="150" xmlns="http://www.w3.org/2000/svg"><g fill="#000"><path d="m149.359 15.6043c-.427-.7782-.999-1.3917-1.708-1.8481s-1.487-.7781-2.341-.9801c-.854-.1945-1.709-.2993-2.57-.2993-1.251 0-2.387.1796-3.424.5462-1.03.3591-1.907.9053-2.616 1.6236-.717.7182-1.228 1.6161-1.54 2.6785l3.935.5462c.205-.5986.617-1.1223 1.22-1.5637.602-.4415 1.418-.6659 2.448-.6659.976 0 1.723.2394 2.249.7107.519.4714.778 1.1373.778 1.9977v.0674c0 .3965-.152.6883-.45.8753-.297.1871-.778.3218-1.426.4115-.648.0898-1.502.1871-2.547.2918-.869.0898-1.708.2395-2.524.4415-.808.202-1.541.4938-2.181.8828-.641.3891-1.152.9054-1.525 1.5563-.374.6509-.557 1.4664-.557 2.4541 0 1.1522.259 2.1173.786 2.9029.526.7856 1.235 1.3767 2.142 1.7733.908.3965 1.922.5985 3.058.5985.931 0 1.747-.1272 2.441-.3816s1.273-.591 1.731-1.0175c.465-.419.823-.8754 1.075-1.3617h.137v2.4092h4.049v-11.7392c0-1.1672-.213-2.1398-.64-2.9104zm-3.561 8.3573c0 .6434-.168 1.242-.504 1.7956-.335.5462-.816.9876-1.441 1.3168-.618.3292-1.357.4939-2.204.4939-.877 0-1.601-.1946-2.166-.5836-.564-.3891-.846-.9652-.846-1.7284 0-.5312.145-.9726.427-1.3093.29-.3367.679-.606 1.174-.7931.496-.187 1.06-.3292 1.686-.4115.282-.0374.61-.0823.991-.1347.381-.0523.763-.1122 1.152-.1795.389-.0674.739-.1497 1.052-.2395.313-.0897.534-.187.671-.2992v2.0725z"/><path d="m114.242 14.6093c-.755-.7257-1.624-1.2569-2.608-1.6011s-2.021-.5163-3.126-.5163c-1.709 0-3.196.3816-4.461 1.1448-1.266.7631-2.25 1.833-2.952 3.1948-.701 1.3692-1.052 2.9553-1.052 4.7585 0 1.833.351 3.4267 1.045 4.7809.701 1.3542 1.7 2.3942 2.997 3.1275 1.296.7332 2.844 1.0998 4.636 1.0998 1.388 0 2.623-.2095 3.699-.621 1.075-.4115 1.967-1.0026 2.661-1.7582.694-.7557 1.167-1.6461 1.411-2.6636l-3.935-.434c-.183.4938-.465.9128-.824 1.242-.366.3367-.793.5911-1.288.7632-.496.1721-1.053.2544-1.663.2544-.915 0-1.716-.1946-2.394-.5761-.687-.3816-1.213-.9428-1.594-1.6685-.366-.7033-.557-1.5413-.564-2.5214h12.453v-1.2645c0-1.5412-.214-2.8655-.649-3.9803-.434-1.1223-1.037-2.0351-1.792-2.7609zm-10.005 5.2149c.038-.6883.221-1.3243.542-1.9153.358-.6585.869-1.1897 1.517-1.6012.648-.404 1.411-.6135 2.273-.6135.808 0 1.517.1796 2.127.5387s1.083.8455 1.426 1.4665.519 1.3243.526 2.1173h-8.411z"/><path d="m74.9161 14.6093c-.755-.7257-1.6243-1.2569-2.608-1.6011-.9838-.3442-2.0209-.5163-3.1266-.5163-1.7082 0-3.1953.3816-4.4611 1.1448-1.2659.7631-2.2497 1.833-2.9512 3.1948-.7016 1.3692-1.0524 2.9553-1.0524 4.7585 0 1.833.3508 3.4267 1.0447 4.7809.7016 1.3542 1.7006 2.3942 2.997 3.1275 1.2964.7332 2.8444 1.0998 4.6365 1.0998 1.3879 0 2.6233-.2095 3.6985-.621 1.0753-.4115 1.9675-1.0026 2.6614-1.7582.694-.7557 1.1668-1.6461 1.4108-2.6636l-3.9349-.434c-.183.4938-.4652.9128-.8236 1.242-.3661.3367-.7931.5911-1.2888.7632s-1.0523.2544-1.6624.2544c-.9151 0-1.7158-.1946-2.3945-.5761-.6863-.3816-1.2125-.9428-1.5938-1.6685-.3661-.7033-.5567-1.5413-.5643-2.5214h12.4529v-1.2645c0-1.5412-.2135-2.8655-.6481-3.9803-.4423-1.1223-1.0372-2.0351-1.7921-2.7609zm-10.0127 5.2149c.0381-.6883.2211-1.3243.5414-1.9153.3584-.6585.8694-1.1897 1.5175-1.6012.6482-.404 1.4108-.6135 2.2725-.6135.8084 0 1.5176.1796 2.1276.5387.6101.3591 1.0829.8455 1.4261 1.4665.3431.621.5185 1.3243.5262 2.1173h-8.4113z"/><path d="m124.331 16.6069h-4.087v13.5348h4.087z"/><path d="m124.332 16.607h8.061v-4.0103h-4.035z"/><path d="m93.3547 13.2625c-.9227-.5163-1.9979-.7781-3.2333-.7781-.4804 0-.9304.0374-1.3574.1122h.0076l-4.0264 4.0103h-4.1866v13.647h4.2171v-7.4594h-.0153v-6.1876h1.6014 2.3183 2.0208c.1449.1122.2898.232.4195.3666.6177.6659.9227 1.5787.9227 2.7534v10.5345h4.2171v-11.178c.0076-1.3991-.2441-2.5962-.7474-3.5763-.5261-.9802-1.243-1.7284-2.1581-2.2446z"/><path d="m47.692 21.2682h5.5135c-.0229 1.0774-.2593 2.0201-.7245 2.8282-.4804.8454-1.1744 1.4964-2.0666 1.9528s-1.9446.6883-3.1647.6883c-1.3422 0-2.5165-.3217-3.5308-.9577-1.0142-.6359-1.8073-1.5712-2.3716-2.8057-.5719-1.2345-.8541-2.7309-.8541-4.5116 0-1.7583.2898-3.2546.8617-4.4817.572-1.227 1.365-2.1548 2.3717-2.7907 1.0066-.636 2.1504-.9502 3.4392-.9502.7168 0 1.3803.0897 1.9903.2693.6101.1796 1.1515.4489 1.6167.8006.4728.3516.877.7781 1.2125 1.2644.3356.4938.6025 1.0475.8007 1.6685h4.423c-.183-1.1522-.5567-2.2072-1.1362-3.1649-.5796-.9577-1.3117-1.78067-2.2039-2.47649s-1.9064-1.23452-3.0503-1.60861c-1.1439-.38158-2.3793-.56863-3.7062-.56863-1.5633 0-3.0198.27683-4.3467.82301-1.3345.54618-2.4936 1.33927-3.485 2.38674-.9914 1.04748-1.7616 2.31188-2.3106 3.80078-.5491 1.4889-.8236 3.1873-.8236 5.0803 0 2.4765.4652 4.6163 1.3955 6.4195.9304 1.8031 2.2268 3.1873 3.8968 4.1674 1.6624.9726 3.5994 1.4664 5.8033 1.4664 1.9827 0 3.7366-.3965 5.2618-1.1896 1.5251-.7931 2.73-1.9228 3.5994-3.3893.8769-1.4665 1.3116-3.2097 1.3116-5.2224v-2.8207h-9.7229z"/><path d="m5.74225 6.41675h-5.74225v24.16665h5.74225z"/><path d="m17.0668 30.5833v5.6338h-5.6584l-5.66597-5.6338z"/><path d="m17.0722 30.5857h5.7423v-24.16662h-5.7423z"/><path d="m5.74219 6.4166v-5.633885h5.66601l5.6583 5.633885z"/></g></svg>